<?xml version="1.0" encoding="utf-8"?>
<!-- Generator: Adobe Illustrator 27.5.0, SVG Export Plug-In . SVG Version: 6.00 Build 0)  -->
<svg version="1.1" id="Design" xmlns="http://www.w3.org/2000/svg" xmlns:xlink="http://www.w3.org/1999/xlink" x="0px" y="0px"
	 viewBox="0 0 288 288" style="enable-background:new 0 0 288 288;" xml:space="preserve">
<g id="XMLID_517_">
	
		<radialGradient id="XMLID_00000103259136778650461750000002887671465472829848_" cx="142.6666" cy="119.3334" r="264.3393" gradientTransform="matrix(1 0.0034 -0.0028 0.8302 0.337 19.7801)" gradientUnits="userSpaceOnUse">
		<stop  offset="0.5561" style="stop-color:#FFFFFF"/>
		<stop  offset="1" style="stop-color:#F3F3F3"/>
	</radialGradient>
	<rect id="XMLID_5224_" style="fill:url(#XMLID_00000103259136778650461750000002887671465472829848_);" width="288" height="288"/>
	<g id="XMLID_518_">
		<g id="XMLID_519_">
			<path id="XMLID_520_" style="fill:#7751A1;" d="M92.665,221.775c-0.545,0-0.967,0.205-1.266,0.614
				c-0.299,0.41-0.448,0.98-0.448,1.712c0,1.523,0.571,2.285,1.714,2.285c0.479,0,1.061-0.12,1.743-0.36v1.215
				c-0.561,0.233-1.186,0.35-1.878,0.35c-0.994,0-1.754-0.301-2.28-0.904c-0.526-0.603-0.79-1.468-0.79-2.595
				c0-0.71,0.129-1.332,0.388-1.866c0.258-0.534,0.63-0.944,1.114-1.229c0.484-0.285,1.052-0.427,1.703-0.427
				c0.664,0,1.33,0.16,1.999,0.481l-0.467,1.177c-0.256-0.121-0.513-0.227-0.771-0.317
				C93.168,221.821,92.914,221.775,92.665,221.775z"/>
			<path id="XMLID_522_" style="fill:#7751A1;" d="M104.93,224.074c0,1.13-0.28,2-0.841,2.607c-0.561,0.607-1.364,0.911-2.411,0.911
				c-1.046,0-1.85-0.304-2.411-0.911c-0.56-0.607-0.841-1.479-0.841-2.616c0-1.137,0.281-2.005,0.843-2.605
				c0.562-0.599,1.368-0.899,2.418-0.899c1.05,0,1.853,0.302,2.408,0.906C104.653,222.071,104.93,222.941,104.93,224.074z
				 M99.946,224.074c0,0.763,0.145,1.337,0.434,1.724c0.29,0.386,0.723,0.58,1.299,0.58c1.155,0,1.733-0.768,1.733-2.303
				c0-1.538-0.575-2.308-1.724-2.308c-0.576,0-1.011,0.194-1.303,0.582C100.092,222.735,99.946,223.311,99.946,224.074z"/>
			<path id="XMLID_525_" style="fill:#7751A1;" d="M112.108,227.499l-1.645-5.358h-0.042c0.059,1.09,0.089,1.817,0.089,2.182v3.177
				h-1.294v-6.83h1.971l1.617,5.223h0.028l1.715-5.223h1.971v6.83h-1.35v-3.233c0-0.153,0.003-0.329,0.007-0.528
				c0.005-0.199,0.026-0.729,0.063-1.588h-0.042l-1.762,5.349H112.108z"/>
			<path id="XMLID_527_" style="fill:#7751A1;" d="M125.827,222.799c0,0.735-0.229,1.297-0.689,1.687
				c-0.46,0.389-1.113,0.584-1.96,0.584h-0.621v2.429h-1.448v-6.83h2.182c0.828,0,1.458,0.178,1.89,0.535
				C125.611,221.56,125.827,222.092,125.827,222.799z M122.557,223.882h0.477c0.445,0,0.778-0.088,1-0.264
				c0.221-0.176,0.331-0.432,0.331-0.769c0-0.339-0.092-0.59-0.278-0.752c-0.185-0.162-0.476-0.243-0.871-0.243h-0.659V223.882z"/>
			<path id="XMLID_530_" style="fill:#7751A1;" d="M134.168,227.499l-0.495-1.626h-2.49l-0.495,1.626h-1.561l2.411-6.858h1.771
				l2.421,6.858H134.168z M133.327,224.658c-0.458-1.473-0.716-2.307-0.773-2.499c-0.058-0.193-0.099-0.346-0.124-0.458
				c-0.103,0.399-0.397,1.385-0.883,2.958H133.327z"/>
			<path id="XMLID_533_" style="fill:#7751A1;" d="M145.518,227.499h-1.842l-2.971-5.167h-0.042c0.06,0.913,0.089,1.563,0.089,1.953
				v3.214h-1.294v-6.83h1.827l2.966,5.116h0.032c-0.046-0.888-0.069-1.516-0.069-1.883v-3.233h1.304V227.499z"/>
			<path id="XMLID_535_" style="fill:#7751A1;" d="M152.233,223.481l1.425-2.813h1.56l-2.267,4.172v2.658h-1.438v-2.612
				l-2.266-4.218h1.569L152.233,223.481z"/>
			<path id="XMLID_537_" style="fill:#7751A1;" d="M170.364,227.499h-1.842l-2.971-5.167h-0.042c0.06,0.913,0.089,1.563,0.089,1.953
				v3.214h-1.294v-6.83h1.827l2.966,5.116h0.032c-0.046-0.888-0.069-1.516-0.069-1.883v-3.233h1.304V227.499z"/>
			<path id="XMLID_539_" style="fill:#7751A1;" d="M179.134,227.499l-0.495-1.626h-2.49l-0.495,1.626h-1.561l2.411-6.858h1.77
				l2.421,6.858H179.134z M178.294,224.658c-0.458-1.473-0.716-2.307-0.773-2.499c-0.058-0.193-0.099-0.346-0.123-0.458
				c-0.104,0.399-0.398,1.385-0.884,2.958H178.294z"/>
			<path id="XMLID_542_" style="fill:#7751A1;" d="M187.317,227.499l-1.645-5.358h-0.043c0.06,1.09,0.09,1.817,0.09,2.182v3.177
				h-1.295v-6.83h1.972l1.616,5.223h0.028l1.715-5.223h1.972v6.83h-1.351v-3.233c0-0.153,0.003-0.329,0.007-0.528
				c0.005-0.199,0.025-0.729,0.063-1.588h-0.042l-1.762,5.349H187.317z"/>
			<path id="XMLID_544_" style="fill:#7751A1;" d="M200.251,227.499h-3.934v-6.83h3.934v1.186h-2.485v1.5h2.312v1.186h-2.312v1.762
				h2.485V227.499z"/>
		</g>
	</g>
	<g id="XMLID_546_">
		<g id="XMLID_547_">
			<path id="XMLID_548_" style="fill:#469D8F;" d="M94.711,235.736h-0.592v-2.299h-0.758v-0.492h2.108v0.492h-0.758V235.736z"/>
			<path id="XMLID_550_" style="fill:#469D8F;" d="M101.517,235.736l-0.203-0.665h-1.018l-0.202,0.665h-0.638l0.985-2.803h0.723
				l0.989,2.803H101.517z M101.174,234.576c-0.187-0.602-0.293-0.942-0.316-1.021c-0.023-0.079-0.04-0.141-0.051-0.187
				c-0.042,0.163-0.162,0.565-0.361,1.208H101.174z"/>
			<path id="XMLID_553_" style="fill:#469D8F;" d="M107.475,234.169h1.107v1.447c-0.179,0.059-0.348,0.1-0.507,0.123
				c-0.158,0.023-0.32,0.035-0.486,0.035c-0.421,0-0.743-0.124-0.965-0.371c-0.222-0.247-0.333-0.603-0.333-1.066
				c0-0.451,0.129-0.802,0.387-1.054c0.258-0.252,0.615-0.378,1.072-0.378c0.286,0,0.563,0.058,0.828,0.172l-0.196,0.474
				c-0.204-0.101-0.415-0.153-0.636-0.153c-0.256,0-0.461,0.086-0.615,0.258c-0.154,0.172-0.231,0.403-0.231,0.693
				c0,0.303,0.062,0.535,0.186,0.694s0.304,0.239,0.541,0.239c0.124,0,0.249-0.013,0.377-0.038v-0.582h-0.529V234.169z"/>
			<path id="XMLID_555_" style="fill:#469D8F;" d="M113.157,235.736v-2.791h0.592v2.302h1.132v0.489H113.157z"/>
			<path id="XMLID_557_" style="fill:#469D8F;" d="M119.276,235.736v-2.791h0.592v2.791H119.276z"/>
			<path id="XMLID_559_" style="fill:#469D8F;" d="M126.957,235.736h-0.752l-1.214-2.111h-0.017
				c0.024,0.373,0.037,0.639,0.037,0.798v1.313h-0.529v-2.791h0.747l1.212,2.09h0.013c-0.019-0.363-0.028-0.619-0.028-0.77v-1.321
				h0.533V235.736z"/>
			<path id="XMLID_561_" style="fill:#469D8F;" d="M133.177,235.736h-1.608v-2.791h1.608v0.485h-1.016v0.613h0.945v0.485h-0.945
				v0.72h1.016V235.736z"/>
			<path id="XMLID_563_" style="fill:#469D8F;" d="M143.655,234.169h1.107v1.447c-0.18,0.059-0.349,0.1-0.507,0.123
				c-0.158,0.023-0.32,0.035-0.486,0.035c-0.421,0-0.743-0.124-0.965-0.371c-0.222-0.247-0.333-0.603-0.333-1.066
				c0-0.451,0.129-0.802,0.387-1.054c0.258-0.252,0.615-0.378,1.072-0.378c0.286,0,0.563,0.058,0.828,0.172l-0.196,0.474
				c-0.204-0.101-0.416-0.153-0.636-0.153c-0.256,0-0.461,0.086-0.615,0.258c-0.154,0.172-0.23,0.403-0.23,0.693
				c0,0.303,0.062,0.535,0.186,0.694c0.124,0.16,0.305,0.239,0.541,0.239c0.124,0,0.249-0.013,0.377-0.038v-0.582h-0.529V234.169z"
				/>
			<path id="XMLID_565_" style="fill:#469D8F;" d="M151.87,234.337c0,0.462-0.114,0.817-0.344,1.066
				c-0.229,0.248-0.558,0.372-0.984,0.372c-0.428,0-0.757-0.124-0.985-0.372c-0.23-0.249-0.344-0.605-0.344-1.069
				c0-0.464,0.114-0.819,0.345-1.064c0.23-0.245,0.559-0.367,0.987-0.367c0.43,0,0.758,0.124,0.984,0.37
				C151.757,233.519,151.87,233.874,151.87,234.337z M149.833,234.337c0,0.312,0.06,0.547,0.178,0.705
				c0.118,0.158,0.295,0.237,0.531,0.237c0.472,0,0.708-0.314,0.708-0.941c0-0.629-0.235-0.943-0.705-0.943
				c-0.235,0-0.412,0.08-0.532,0.238C149.893,233.79,149.833,234.025,149.833,234.337z"/>
			<path id="XMLID_568_" style="fill:#469D8F;" d="M157.967,235.736h-1.608v-2.791h1.608v0.485h-1.016v0.613h0.944v0.485h-0.944
				v0.72h1.016V235.736z"/>
			<path id="XMLID_570_" style="fill:#469D8F;" d="M164.106,234.961c0,0.252-0.091,0.45-0.272,0.595
				c-0.182,0.145-0.434,0.218-0.757,0.218c-0.298,0-0.561-0.056-0.79-0.168v-0.55c0.188,0.084,0.348,0.143,0.477,0.178
				c0.131,0.034,0.25,0.051,0.358,0.051c0.13,0,0.23-0.025,0.299-0.074c0.069-0.05,0.104-0.123,0.104-0.222
				c0-0.055-0.015-0.104-0.046-0.146c-0.03-0.042-0.075-0.083-0.134-0.123c-0.06-0.04-0.181-0.103-0.362-0.189
				c-0.171-0.08-0.299-0.157-0.384-0.231c-0.085-0.074-0.153-0.16-0.204-0.258c-0.051-0.098-0.076-0.212-0.076-0.344
				c0-0.247,0.083-0.441,0.251-0.583c0.167-0.141,0.398-0.212,0.693-0.212c0.146,0,0.284,0.018,0.416,0.052
				c0.132,0.034,0.27,0.083,0.413,0.145l-0.191,0.46c-0.148-0.061-0.271-0.104-0.369-0.128c-0.098-0.024-0.193-0.037-0.287-0.037
				c-0.112,0-0.198,0.026-0.258,0.079c-0.06,0.052-0.09,0.12-0.09,0.204c0,0.052,0.012,0.098,0.036,0.137
				c0.024,0.039,0.063,0.076,0.116,0.112c0.053,0.036,0.178,0.102,0.375,0.196c0.261,0.124,0.439,0.25,0.536,0.375
				C164.057,234.626,164.106,234.779,164.106,234.961z"/>
			<path id="XMLID_572_" style="fill:#469D8F;" d="M175.735,235.736h-0.591v-1.204h-1.104v1.204h-0.593v-2.791h0.593v1.094h1.104
				v-1.094h0.591V235.736z"/>
			<path id="XMLID_574_" style="fill:#469D8F;" d="M181.957,235.736h-1.608v-2.791h1.608v0.485h-1.016v0.613h0.944v0.485h-0.944
				v0.72h1.016V235.736z"/>
			<path id="XMLID_576_" style="fill:#469D8F;" d="M187.041,234.665v1.071h-0.592v-2.791h0.813c0.379,0,0.66,0.069,0.842,0.207
				c0.182,0.138,0.273,0.348,0.273,0.629c0,0.164-0.046,0.311-0.136,0.438c-0.091,0.128-0.219,0.228-0.384,0.3
				c0.42,0.628,0.693,1.033,0.82,1.216h-0.656l-0.666-1.071H187.041z M187.041,234.184h0.191c0.186,0,0.325-0.031,0.414-0.093
				c0.089-0.063,0.134-0.161,0.134-0.294c0-0.132-0.046-0.226-0.137-0.282c-0.091-0.056-0.232-0.084-0.423-0.084h-0.18V234.184z"/>
			<path id="XMLID_579_" style="fill:#469D8F;" d="M194.548,235.736h-1.607v-2.791h1.607v0.485h-1.016v0.613h0.945v0.485h-0.945
				v0.72h1.016V235.736z"/>
		</g>
	</g>
	
		<radialGradient id="XMLID_00000147932034169506298110000006682208767854665614_" cx="60.7994" cy="3428.3416" r="63.8147" gradientTransform="matrix(1.4609 0 0 0.1 56.6235 -135.2287)" gradientUnits="userSpaceOnUse">
		<stop  offset="0" style="stop-color:#787878"/>
		<stop  offset="0.0672" style="stop-color:#8F8F8F"/>
		<stop  offset="0.1841" style="stop-color:#B2B2B2"/>
		<stop  offset="0.309" style="stop-color:#CECECE"/>
		<stop  offset="0.4425" style="stop-color:#E4E4E4"/>
		<stop  offset="0.5889" style="stop-color:#F3F3F3"/>
		<stop  offset="0.7575" style="stop-color:#FCFCFC"/>
		<stop  offset="1" style="stop-color:#FFFFFF"/>
	</radialGradient>
	<path id="XMLID_3547_" style="opacity:0.25;fill:url(#XMLID_00000147932034169506298110000006682208767854665614_);" d="
		M238.667,207.606c0,3.524-41.735,6.381-93.221,6.381c-51.484,0-93.221-2.857-93.221-6.381c0-3.526,41.738-6.383,93.221-6.383
		C196.932,201.224,238.667,204.08,238.667,207.606z"/>
	
		<linearGradient id="XMLID_00000051351258593225732280000008854859611125465276_" gradientUnits="userSpaceOnUse" x1="48.5655" y1="181.6365" x2="301.5657" y2="-11.8639">
		<stop  offset="0" style="stop-color:#FF005C"/>
		<stop  offset="0.0056" style="stop-color:#FC015D"/>
		<stop  offset="0.2757" style="stop-color:#763B91"/>
		<stop  offset="0.4598" style="stop-color:#2160B2"/>
		<stop  offset="0.543" style="stop-color:#006EBF"/>
		<stop  offset="1" style="stop-color:#FFAF00"/>
	</linearGradient>
	<polygon id="XMLID_581_" style="fill:url(#XMLID_00000051351258593225732280000008854859611125465276_);" points="142.373,54.5 
		92.172,98.338 92.172,129.339 142.373,85.496 191.081,128.028 191.081,97.028 	"/>
	
		<linearGradient id="XMLID_00000125567917983779108770000007582639828297262481_" gradientUnits="userSpaceOnUse" x1="-9.7531" y1="302.1368" x2="243.2472" y2="108.6363">
		<stop  offset="0" style="stop-color:#FF009D"/>
		<stop  offset="0.0056" style="stop-color:#FC029E"/>
		<stop  offset="0.2757" style="stop-color:#765BBF"/>
		<stop  offset="0.4598" style="stop-color:#2194D5"/>
		<stop  offset="0.543" style="stop-color:#00AADD"/>
		<stop  offset="1" style="stop-color:#FFD400"/>
	</linearGradient>
	<polygon id="XMLID_3544_" style="fill:url(#XMLID_00000125567917983779108770000007582639828297262481_);" points="
		142.373,130.399 92.172,174.233 92.172,205.233 142.373,161.395 191.081,203.923 191.081,172.927 	"/>
	
		<linearGradient id="XMLID_00000019661065533640341250000013559517816056250014_" gradientUnits="userSpaceOnUse" x1="68.8841" y1="208.2028" x2="321.8841" y2="14.7026">
		<stop  offset="0" style="stop-color:#FF009D"/>
		<stop  offset="0.0056" style="stop-color:#FC029E"/>
		<stop  offset="0.2757" style="stop-color:#765BBF"/>
		<stop  offset="0.4598" style="stop-color:#2194D5"/>
		<stop  offset="0.543" style="stop-color:#00AADD"/>
		<stop  offset="1" style="stop-color:#FFD400"/>
	</linearGradient>
	<polygon id="XMLID_582_" style="fill:url(#XMLID_00000019661065533640341250000013559517816056250014_);" points="176.522,113.059 
		176.522,96.863 166.908,96.863 166.908,104.664 142.551,83.398 80.495,137.582 80.495,175.898 142.551,121.712 202.753,174.279 
		202.753,135.962 	"/>
</g>
</svg>
